<svg xmlns="http://www.w3.org/2000/svg" viewBox="0 0 100 100">
  <path d="M25 50c0-8.284 6.716-15 15-15 4.477 0 8.498 1.963 11.25 5.074C54.002 36.963 58.023 35 62.5 35c8.284 0 15 6.716 15 15s-6.716 15-15 15c-4.477 0-8.498-1.963-11.25-5.074C48.498 63.037 44.477 65 40 65c-8.284 0-15-6.716-15-15zm15-10c-5.523 0-10 4.477-10 10s4.477 10 10 10c3.038 0 5.758-1.357 7.583-3.493l.917-1.074.917 1.074C51.242 58.643 53.962 60 57 60c5.523 0 10-4.477 10-10s-4.477-10-10-10c-3.038 0-5.758 1.357-7.583 3.493l-.917 1.074-.917-1.074C45.758 41.357 43.038 40 40 40z" fill="#c9b99b"/>
</svg>
